# xmcd CD database file
#
# Track frame offsets:
#	150
#	11377
#	28225
#	41837
#	50372
#	75902
#	87867
#	102850
#	118625
#	128992
#	137985
#	158982
#	175090
#
# Disc length: 2474 seconds
#
# Revision: 0
# Processed by: cddbd v1.5.2PL0 Copyright (c) Steve Scherf et al.
# Submitted via: CDex 1.70beta2
#
DISCID=a109a80d
DTITLE=Thelonious Monk - Solo Monk
DYEAR=1992
DGENRE=Jazz
TTITLE0=Dinah
TTITLE1=I Surrender, Dear
TTITLE2=Sweet and Lovely
TTITLE3=North Of The Sunset
TTITLE4=Ruby, My Dear
TTITLE5=I'm Confessin' (That I Love You)
TTITLE6=I Hadn't Anyone Till You
TTITLE7=Everything Happens To Me
TTITLE8=Monk's Point
TTITLE9=I Should Care
TTITLE10=Ask Me Now
TTITLE11=These Foolish Things (Remind Me Of You)
TTITLE12=Introspection
EXTD=YEAR: 1992
EXTT0=
EXTT1=
EXTT2=
EXTT3=
EXTT4=
EXTT5=
EXTT6=
EXTT7=
EXTT8=
EXTT9=
EXTT10=
EXTT11=
EXTT12=
PLAYORDER=
